<mxfile host="Electron" modified="2024-03-10T16:23:58.207Z" agent="Mozilla/5.0 (Macintosh; Intel Mac OS X 10_15_7) AppleWebKit/537.36 (KHTML, like Gecko) draw.io/24.0.4 Chrome/120.0.6099.109 Electron/28.1.0 Safari/537.36" etag="-GGUGE6ctxQyUGD1r0Bm" version="24.0.4" type="device">
  <diagram id="V_Y_md7WLkinnNLW4dsv" name="Page-1">
    <mxGraphModel dx="794" dy="525" grid="1" gridSize="10" guides="1" tooltips="1" connect="1" arrows="1" fold="1" page="1" pageScale="1" pageWidth="827" pageHeight="1169" math="0" shadow="0">
      <root>
        <mxCell id="0" />
        <mxCell id="1" parent="0" />
        <mxCell id="UzmtRjde1-FKZK47zOih-44" style="edgeStyle=orthogonalEdgeStyle;rounded=0;orthogonalLoop=1;jettySize=auto;html=1;exitX=0.5;exitY=1;exitDx=0;exitDy=0;entryX=0.5;entryY=0;entryDx=0;entryDy=0;" parent="1" source="UzmtRjde1-FKZK47zOih-1" target="UzmtRjde1-FKZK47zOih-17" edge="1">
          <mxGeometry relative="1" as="geometry" />
        </mxCell>
        <mxCell id="UzmtRjde1-FKZK47zOih-1" value="&quot;IN&quot;" style="rounded=0;whiteSpace=wrap;html=1;fillColor=#ffe6cc;strokeColor=#d79b00;" parent="1" vertex="1">
          <mxGeometry x="360" y="275" width="120" height="60" as="geometry" />
        </mxCell>
        <mxCell id="UzmtRjde1-FKZK47zOih-4" value="Trash" style="rounded=1;whiteSpace=wrap;html=1;" parent="1" vertex="1">
          <mxGeometry x="520" y="475" width="120" height="60" as="geometry" />
        </mxCell>
        <mxCell id="UzmtRjde1-FKZK47zOih-5" value="Someday/Maybe &lt;b&gt;list&lt;/b&gt;" style="rounded=1;whiteSpace=wrap;html=1;fillColor=#ffe6cc;strokeColor=#d79b00;" parent="1" vertex="1">
          <mxGeometry x="70" y="375" width="120" height="60" as="geometry" />
        </mxCell>
        <mxCell id="UzmtRjde1-FKZK47zOih-6" value="Reference folder" style="rounded=1;whiteSpace=wrap;html=1;" parent="1" vertex="1">
          <mxGeometry x="660" y="475" width="120" height="60" as="geometry" />
        </mxCell>
        <mxCell id="UzmtRjde1-FKZK47zOih-8" value="Do it now" style="rounded=0;whiteSpace=wrap;html=1;" parent="1" vertex="1">
          <mxGeometry x="510" y="785" width="120" height="60" as="geometry" />
        </mxCell>
        <mxCell id="UzmtRjde1-FKZK47zOih-64" style="edgeStyle=orthogonalEdgeStyle;rounded=0;orthogonalLoop=1;jettySize=auto;html=1;exitX=0;exitY=0.5;exitDx=0;exitDy=0;entryX=1;entryY=0.5;entryDx=0;entryDy=0;startArrow=none;startFill=0;" parent="1" source="UzmtRjde1-FKZK47zOih-9" target="UzmtRjde1-FKZK47zOih-14" edge="1">
          <mxGeometry relative="1" as="geometry" />
        </mxCell>
        <mxCell id="UzmtRjde1-FKZK47zOih-9" value="Delegate it" style="rounded=0;whiteSpace=wrap;html=1;" parent="1" vertex="1">
          <mxGeometry x="210" y="675" width="120" height="60" as="geometry" />
        </mxCell>
        <mxCell id="UzmtRjde1-FKZK47zOih-24" style="edgeStyle=orthogonalEdgeStyle;rounded=0;orthogonalLoop=1;jettySize=auto;html=1;exitX=0.5;exitY=1;exitDx=0;exitDy=0;entryX=0.5;entryY=0;entryDx=0;entryDy=0;" parent="1" source="UzmtRjde1-FKZK47zOih-10" target="UzmtRjde1-FKZK47zOih-20" edge="1">
          <mxGeometry relative="1" as="geometry" />
        </mxCell>
        <mxCell id="UzmtRjde1-FKZK47zOih-10" value="Defer it" style="rounded=0;whiteSpace=wrap;html=1;" parent="1" vertex="1">
          <mxGeometry x="360" y="895" width="120" height="60" as="geometry" />
        </mxCell>
        <mxCell id="UzmtRjde1-FKZK47zOih-39" style="edgeStyle=orthogonalEdgeStyle;rounded=0;orthogonalLoop=1;jettySize=auto;html=1;exitX=0.5;exitY=1;exitDx=0;exitDy=0;entryX=0.5;entryY=0;entryDx=0;entryDy=0;startArrow=none;startFill=0;" parent="1" source="UzmtRjde1-FKZK47zOih-50" target="UzmtRjde1-FKZK47zOih-15" edge="1">
          <mxGeometry relative="1" as="geometry" />
        </mxCell>
        <mxCell id="UzmtRjde1-FKZK47zOih-51" style="edgeStyle=orthogonalEdgeStyle;rounded=0;orthogonalLoop=1;jettySize=auto;html=1;exitX=0;exitY=0.5;exitDx=0;exitDy=0;entryX=1;entryY=0.5;entryDx=0;entryDy=0;startArrow=none;startFill=0;" parent="1" source="UzmtRjde1-FKZK47zOih-11" target="UzmtRjde1-FKZK47zOih-50" edge="1">
          <mxGeometry relative="1" as="geometry" />
        </mxCell>
        <mxCell id="UzmtRjde1-FKZK47zOih-11" value="Projects &lt;b&gt;list&lt;/b&gt;" style="rounded=1;whiteSpace=wrap;html=1;fillColor=#ffe6cc;strokeColor=#d79b00;" parent="1" vertex="1">
          <mxGeometry x="210" y="475" width="120" height="60" as="geometry" />
        </mxCell>
        <mxCell id="UzmtRjde1-FKZK47zOih-12" value="Next Actions &lt;b&gt;list&lt;/b&gt;&lt;br&gt;( with context / time available / energy required / priority )" style="rounded=1;whiteSpace=wrap;html=1;fillColor=#ffe6cc;strokeColor=#d79b00;" parent="1" vertex="1">
          <mxGeometry x="440" y="1085" width="120" height="60" as="geometry" />
        </mxCell>
        <mxCell id="UzmtRjde1-FKZK47zOih-13" value="Calendar" style="rounded=1;whiteSpace=wrap;html=1;fillColor=#ffe6cc;strokeColor=#d79b00;" parent="1" vertex="1">
          <mxGeometry x="280" y="1085" width="120" height="60" as="geometry" />
        </mxCell>
        <mxCell id="UzmtRjde1-FKZK47zOih-14" value="Waiting For &lt;b&gt;list&lt;/b&gt;&lt;br&gt;(with date)" style="rounded=1;whiteSpace=wrap;html=1;fillColor=#ffe6cc;strokeColor=#d79b00;" parent="1" vertex="1">
          <mxGeometry x="70" y="675" width="120" height="60" as="geometry" />
        </mxCell>
        <mxCell id="UzmtRjde1-FKZK47zOih-40" style="edgeStyle=orthogonalEdgeStyle;rounded=0;orthogonalLoop=1;jettySize=auto;html=1;exitX=1;exitY=0.5;exitDx=0;exitDy=0;entryX=0;entryY=0.5;entryDx=0;entryDy=0;" parent="1" source="UzmtRjde1-FKZK47zOih-15" target="UzmtRjde1-FKZK47zOih-37" edge="1">
          <mxGeometry relative="1" as="geometry" />
        </mxCell>
        <mxCell id="UzmtRjde1-FKZK47zOih-15" value="&lt;div style=&quot;text-align: left;&quot;&gt;&lt;b style=&quot;background-color: initial;&quot;&gt;Planning&lt;/b&gt;&lt;/div&gt;&lt;div style=&quot;text-align: left;&quot;&gt;1. Defining purpose and principles&lt;/div&gt;&lt;div style=&quot;text-align: left;&quot;&gt;2. Outcome visioning&lt;/div&gt;&lt;div style=&quot;text-align: left;&quot;&gt;3. Brainstorming&lt;/div&gt;&lt;div style=&quot;text-align: left;&quot;&gt;4. Organizing&lt;/div&gt;&lt;div style=&quot;text-align: left;&quot;&gt;5. Identifying next actions&lt;/div&gt;" style="rounded=1;whiteSpace=wrap;html=1;" parent="1" vertex="1">
          <mxGeometry x="25" y="555" width="210" height="100" as="geometry" />
        </mxCell>
        <mxCell id="UzmtRjde1-FKZK47zOih-35" style="edgeStyle=orthogonalEdgeStyle;rounded=0;orthogonalLoop=1;jettySize=auto;html=1;exitX=1;exitY=0.5;exitDx=0;exitDy=0;entryX=0;entryY=0.5;entryDx=0;entryDy=0;" parent="1" source="UzmtRjde1-FKZK47zOih-17" target="UzmtRjde1-FKZK47zOih-21" edge="1">
          <mxGeometry relative="1" as="geometry" />
        </mxCell>
        <mxCell id="UzmtRjde1-FKZK47zOih-45" value="no" style="edgeLabel;html=1;align=center;verticalAlign=middle;resizable=0;points=[];" parent="UzmtRjde1-FKZK47zOih-35" vertex="1" connectable="0">
          <mxGeometry x="-0.2595" y="-2" relative="1" as="geometry">
            <mxPoint y="-2" as="offset" />
          </mxGeometry>
        </mxCell>
        <mxCell id="UzmtRjde1-FKZK47zOih-43" style="edgeStyle=orthogonalEdgeStyle;rounded=0;orthogonalLoop=1;jettySize=auto;html=1;exitX=0.5;exitY=1;exitDx=0;exitDy=0;entryX=0.5;entryY=0;entryDx=0;entryDy=0;" parent="1" source="UzmtRjde1-FKZK47zOih-17" target="UzmtRjde1-FKZK47zOih-18" edge="1">
          <mxGeometry relative="1" as="geometry" />
        </mxCell>
        <mxCell id="UzmtRjde1-FKZK47zOih-17" value="Actionable ?" style="rhombus;whiteSpace=wrap;html=1;" parent="1" vertex="1">
          <mxGeometry x="360" y="365" width="120" height="80" as="geometry" />
        </mxCell>
        <mxCell id="UzmtRjde1-FKZK47zOih-38" style="edgeStyle=orthogonalEdgeStyle;rounded=0;orthogonalLoop=1;jettySize=auto;html=1;exitX=0;exitY=0.5;exitDx=0;exitDy=0;entryX=1;entryY=0.5;entryDx=0;entryDy=0;" parent="1" source="UzmtRjde1-FKZK47zOih-18" target="UzmtRjde1-FKZK47zOih-11" edge="1">
          <mxGeometry relative="1" as="geometry" />
        </mxCell>
        <mxCell id="UzmtRjde1-FKZK47zOih-41" value="no" style="edgeStyle=orthogonalEdgeStyle;rounded=0;orthogonalLoop=1;jettySize=auto;html=1;exitX=0.5;exitY=1;exitDx=0;exitDy=0;entryX=0.5;entryY=0;entryDx=0;entryDy=0;" parent="1" source="UzmtRjde1-FKZK47zOih-18" target="UzmtRjde1-FKZK47zOih-37" edge="1">
          <mxGeometry x="-0.3333" relative="1" as="geometry">
            <mxPoint as="offset" />
          </mxGeometry>
        </mxCell>
        <mxCell id="UzmtRjde1-FKZK47zOih-18" value="More than&lt;br&gt;one action ?" style="rhombus;whiteSpace=wrap;html=1;" parent="1" vertex="1">
          <mxGeometry x="360" y="465" width="120" height="80" as="geometry" />
        </mxCell>
        <mxCell id="UzmtRjde1-FKZK47zOih-66" style="edgeStyle=orthogonalEdgeStyle;rounded=0;orthogonalLoop=1;jettySize=auto;html=1;exitX=1;exitY=0.5;exitDx=0;exitDy=0;entryX=0;entryY=0.5;entryDx=0;entryDy=0;startArrow=none;startFill=0;" parent="1" source="UzmtRjde1-FKZK47zOih-19" target="UzmtRjde1-FKZK47zOih-8" edge="1">
          <mxGeometry relative="1" as="geometry" />
        </mxCell>
        <mxCell id="UzmtRjde1-FKZK47zOih-67" style="edgeStyle=orthogonalEdgeStyle;rounded=0;orthogonalLoop=1;jettySize=auto;html=1;exitX=0.5;exitY=1;exitDx=0;exitDy=0;entryX=0.5;entryY=0;entryDx=0;entryDy=0;startArrow=none;startFill=0;" parent="1" source="UzmtRjde1-FKZK47zOih-19" target="UzmtRjde1-FKZK47zOih-10" edge="1">
          <mxGeometry relative="1" as="geometry" />
        </mxCell>
        <mxCell id="UzmtRjde1-FKZK47zOih-75" value="no" style="edgeLabel;html=1;align=center;verticalAlign=middle;resizable=0;points=[];" parent="UzmtRjde1-FKZK47zOih-67" vertex="1" connectable="0">
          <mxGeometry x="-0.1067" relative="1" as="geometry">
            <mxPoint as="offset" />
          </mxGeometry>
        </mxCell>
        <mxCell id="UzmtRjde1-FKZK47zOih-19" value="Less than&lt;br&gt;2 minutes ?" style="rhombus;whiteSpace=wrap;html=1;" parent="1" vertex="1">
          <mxGeometry x="360" y="775" width="120" height="80" as="geometry" />
        </mxCell>
        <mxCell id="UzmtRjde1-FKZK47zOih-61" style="edgeStyle=orthogonalEdgeStyle;rounded=0;orthogonalLoop=1;jettySize=auto;html=1;exitX=1;exitY=0.5;exitDx=0;exitDy=0;entryX=0.5;entryY=0;entryDx=0;entryDy=0;startArrow=none;startFill=0;" parent="1" source="UzmtRjde1-FKZK47zOih-20" target="UzmtRjde1-FKZK47zOih-12" edge="1">
          <mxGeometry relative="1" as="geometry" />
        </mxCell>
        <mxCell id="UzmtRjde1-FKZK47zOih-76" value="no" style="edgeLabel;html=1;align=center;verticalAlign=middle;resizable=0;points=[];" parent="UzmtRjde1-FKZK47zOih-61" vertex="1" connectable="0">
          <mxGeometry x="0.0796" y="-1" relative="1" as="geometry">
            <mxPoint as="offset" />
          </mxGeometry>
        </mxCell>
        <mxCell id="UzmtRjde1-FKZK47zOih-62" style="edgeStyle=orthogonalEdgeStyle;rounded=0;orthogonalLoop=1;jettySize=auto;html=1;exitX=0;exitY=0.5;exitDx=0;exitDy=0;entryX=0.5;entryY=0;entryDx=0;entryDy=0;startArrow=none;startFill=0;" parent="1" source="UzmtRjde1-FKZK47zOih-20" target="UzmtRjde1-FKZK47zOih-13" edge="1">
          <mxGeometry relative="1" as="geometry" />
        </mxCell>
        <mxCell id="UzmtRjde1-FKZK47zOih-20" value="Time/Date&lt;br&gt;specific ?" style="rhombus;whiteSpace=wrap;html=1;" parent="1" vertex="1">
          <mxGeometry x="360" y="975" width="120" height="80" as="geometry" />
        </mxCell>
        <mxCell id="UzmtRjde1-FKZK47zOih-31" style="edgeStyle=orthogonalEdgeStyle;rounded=0;orthogonalLoop=1;jettySize=auto;html=1;exitX=0.5;exitY=1;exitDx=0;exitDy=0;entryX=0.5;entryY=0;entryDx=0;entryDy=0;" parent="1" source="UzmtRjde1-FKZK47zOih-21" target="UzmtRjde1-FKZK47zOih-4" edge="1">
          <mxGeometry relative="1" as="geometry" />
        </mxCell>
        <mxCell id="UzmtRjde1-FKZK47zOih-46" value="no" style="edgeLabel;html=1;align=center;verticalAlign=middle;resizable=0;points=[];" parent="UzmtRjde1-FKZK47zOih-31" vertex="1" connectable="0">
          <mxGeometry x="-0.1873" y="1" relative="1" as="geometry">
            <mxPoint as="offset" />
          </mxGeometry>
        </mxCell>
        <mxCell id="UzmtRjde1-FKZK47zOih-36" style="edgeStyle=orthogonalEdgeStyle;rounded=0;orthogonalLoop=1;jettySize=auto;html=1;exitX=1;exitY=0.5;exitDx=0;exitDy=0;entryX=0;entryY=0.5;entryDx=0;entryDy=0;" parent="1" source="UzmtRjde1-FKZK47zOih-21" target="UzmtRjde1-FKZK47zOih-22" edge="1">
          <mxGeometry relative="1" as="geometry" />
        </mxCell>
        <mxCell id="UzmtRjde1-FKZK47zOih-21" value="Useful ?" style="rhombus;whiteSpace=wrap;html=1;" parent="1" vertex="1">
          <mxGeometry x="520" y="365" width="120" height="80" as="geometry" />
        </mxCell>
        <mxCell id="UzmtRjde1-FKZK47zOih-32" style="edgeStyle=orthogonalEdgeStyle;rounded=0;orthogonalLoop=1;jettySize=auto;html=1;exitX=0.5;exitY=1;exitDx=0;exitDy=0;entryX=0.5;entryY=0;entryDx=0;entryDy=0;" parent="1" source="UzmtRjde1-FKZK47zOih-22" target="UzmtRjde1-FKZK47zOih-6" edge="1">
          <mxGeometry relative="1" as="geometry" />
        </mxCell>
        <mxCell id="UzmtRjde1-FKZK47zOih-47" value="no" style="edgeLabel;html=1;align=center;verticalAlign=middle;resizable=0;points=[];" parent="UzmtRjde1-FKZK47zOih-32" vertex="1" connectable="0">
          <mxGeometry x="-0.3778" relative="1" as="geometry">
            <mxPoint as="offset" />
          </mxGeometry>
        </mxCell>
        <mxCell id="UzmtRjde1-FKZK47zOih-54" style="edgeStyle=orthogonalEdgeStyle;rounded=0;orthogonalLoop=1;jettySize=auto;html=1;exitX=0.5;exitY=0;exitDx=0;exitDy=0;entryX=0.5;entryY=1;entryDx=0;entryDy=0;dashed=1;startArrow=none;startFill=0;" parent="1" source="UzmtRjde1-FKZK47zOih-22" target="UzmtRjde1-FKZK47zOih-53" edge="1">
          <mxGeometry relative="1" as="geometry" />
        </mxCell>
        <mxCell id="UzmtRjde1-FKZK47zOih-22" value="Actionable&amp;nbsp;&lt;br&gt;later ?" style="rhombus;whiteSpace=wrap;html=1;" parent="1" vertex="1">
          <mxGeometry x="660" y="365" width="120" height="80" as="geometry" />
        </mxCell>
        <mxCell id="UzmtRjde1-FKZK47zOih-56" style="edgeStyle=orthogonalEdgeStyle;rounded=0;orthogonalLoop=1;jettySize=auto;html=1;exitX=0.5;exitY=1;exitDx=0;exitDy=0;entryX=0.5;entryY=0;entryDx=0;entryDy=0;startArrow=none;startFill=0;" parent="1" source="UzmtRjde1-FKZK47zOih-37" target="UzmtRjde1-FKZK47zOih-55" edge="1">
          <mxGeometry relative="1" as="geometry" />
        </mxCell>
        <mxCell id="UzmtRjde1-FKZK47zOih-37" value="Determine next action" style="rounded=0;whiteSpace=wrap;html=1;" parent="1" vertex="1">
          <mxGeometry x="360" y="575" width="120" height="60" as="geometry" />
        </mxCell>
        <mxCell id="UzmtRjde1-FKZK47zOih-52" style="edgeStyle=orthogonalEdgeStyle;rounded=0;orthogonalLoop=1;jettySize=auto;html=1;exitX=0.5;exitY=0;exitDx=0;exitDy=0;entryX=0.5;entryY=1;entryDx=0;entryDy=0;startArrow=none;startFill=0;dashed=1;" parent="1" source="UzmtRjde1-FKZK47zOih-50" target="UzmtRjde1-FKZK47zOih-5" edge="1">
          <mxGeometry relative="1" as="geometry" />
        </mxCell>
        <mxCell id="UzmtRjde1-FKZK47zOih-50" value="Urgent ?" style="rhombus;whiteSpace=wrap;html=1;" parent="1" vertex="1">
          <mxGeometry x="70" y="465" width="120" height="80" as="geometry" />
        </mxCell>
        <mxCell id="UzmtRjde1-FKZK47zOih-53" value="Someday/Maybe &lt;b&gt;list&lt;/b&gt;" style="rounded=1;whiteSpace=wrap;html=1;dashed=1;fillColor=#ffe6cc;strokeColor=#d79b00;opacity=40;fillStyle=auto;gradientColor=none;" parent="1" vertex="1">
          <mxGeometry x="660" y="275" width="120" height="60" as="geometry" />
        </mxCell>
        <mxCell id="UzmtRjde1-FKZK47zOih-63" style="edgeStyle=orthogonalEdgeStyle;rounded=0;orthogonalLoop=1;jettySize=auto;html=1;exitX=0;exitY=0.5;exitDx=0;exitDy=0;entryX=1;entryY=0.5;entryDx=0;entryDy=0;startArrow=none;startFill=0;" parent="1" source="UzmtRjde1-FKZK47zOih-55" target="UzmtRjde1-FKZK47zOih-9" edge="1">
          <mxGeometry relative="1" as="geometry" />
        </mxCell>
        <mxCell id="UzmtRjde1-FKZK47zOih-65" style="edgeStyle=orthogonalEdgeStyle;rounded=0;orthogonalLoop=1;jettySize=auto;html=1;exitX=0.5;exitY=1;exitDx=0;exitDy=0;entryX=0.5;entryY=0;entryDx=0;entryDy=0;startArrow=none;startFill=0;" parent="1" source="UzmtRjde1-FKZK47zOih-55" target="UzmtRjde1-FKZK47zOih-19" edge="1">
          <mxGeometry relative="1" as="geometry" />
        </mxCell>
        <mxCell id="UzmtRjde1-FKZK47zOih-74" value="no" style="edgeLabel;html=1;align=center;verticalAlign=middle;resizable=0;points=[];" parent="UzmtRjde1-FKZK47zOih-65" vertex="1" connectable="0">
          <mxGeometry x="-0.3174" y="-1" relative="1" as="geometry">
            <mxPoint as="offset" />
          </mxGeometry>
        </mxCell>
        <mxCell id="UzmtRjde1-FKZK47zOih-55" value="Can I delegate ?" style="rhombus;whiteSpace=wrap;html=1;" parent="1" vertex="1">
          <mxGeometry x="360" y="665" width="120" height="80" as="geometry" />
        </mxCell>
        <mxCell id="UzmtRjde1-FKZK47zOih-68" value="&lt;b&gt;Weekly review :&lt;/b&gt;&lt;br&gt;&lt;div&gt;- Review &quot;Next Actions&quot; Lists&lt;/div&gt;&lt;div&gt;- Review Previous Calendar Data&lt;/div&gt;&lt;div&gt;- Review Upcoming Calendar&lt;/div&gt;&lt;div&gt;- Review &quot;Waiting For&quot; List&lt;/div&gt;&lt;div&gt;- Review &quot;Projects&quot; and &quot;Larger Outcome&quot;) Lists&lt;/div&gt;&lt;div&gt;- Review Any Relevant Checklists&lt;/div&gt;&lt;div&gt;- Review &quot;Someday/Maybe&quot; List&lt;/div&gt;&lt;div&gt;- Mind sweeping&lt;/div&gt;&lt;div&gt;- Review Every notes (meetings, post-it)&lt;/div&gt;&lt;div&gt;&lt;span style=&quot;background-color: initial;&quot;&gt;- Review Key responsibility areas (pro / perso)&lt;/span&gt;&lt;br&gt;&lt;/div&gt;&lt;div&gt;- Review Horizons&lt;/div&gt;" style="rounded=0;whiteSpace=wrap;html=1;align=left;spacing=5;" parent="1" vertex="1">
          <mxGeometry x="540" y="25" width="270" height="190" as="geometry" />
        </mxCell>
        <mxCell id="UzmtRjde1-FKZK47zOih-69" value="&lt;div style=&quot;&quot;&gt;&lt;b style=&quot;background-color: initial;&quot;&gt;Horizons&lt;/b&gt;&lt;/div&gt;&lt;div&gt;- Horizon 5: Purpose and principles&lt;/div&gt;&lt;div&gt;- Horizon 4: Vision (3-5 years)&lt;/div&gt;&lt;div&gt;- Horizon 3: Goals&lt;/div&gt;&lt;div&gt;- Horizon 2: Areas of focus and accountabilities&lt;/div&gt;&lt;div&gt;- Horizon 1: Current projects&lt;/div&gt;&lt;div&gt;- Ground: Current actions&lt;/div&gt;" style="rounded=0;whiteSpace=wrap;html=1;align=left;" parent="1" vertex="1">
          <mxGeometry x="520" y="575" width="270" height="110" as="geometry" />
        </mxCell>
        <mxCell id="UzmtRjde1-FKZK47zOih-71" style="edgeStyle=orthogonalEdgeStyle;rounded=0;orthogonalLoop=1;jettySize=auto;html=1;exitX=1;exitY=0.5;exitDx=0;exitDy=0;entryX=0.5;entryY=0;entryDx=0;entryDy=0;startArrow=none;startFill=0;" parent="1" source="UzmtRjde1-FKZK47zOih-70" target="UzmtRjde1-FKZK47zOih-1" edge="1">
          <mxGeometry relative="1" as="geometry" />
        </mxCell>
        <mxCell id="UzmtRjde1-FKZK47zOih-70" value="Stuff / Trigger List :&#xa;- Finance&#xa;- Planning&#xa;- Marketing&#xa;- Administration&#xa;- Staff&#xa;- Sales&#xa;- Meetings&#xa;- Waiting for&#xa;- Family&#xa;- Friends&#xa;- Home&#xa;- Decisions&#xa;- Legal&#xa;- Health&#xa;- Travel&#xa;- Sport&#xa;- Clothes&#xa;- Repairs&#xa;- Promises&#xa;- Writing" style="rounded=0;whiteSpace=wrap;align=left;spacing=10;" parent="1" vertex="1">
          <mxGeometry x="10" y="25" width="270" height="320" as="geometry" />
        </mxCell>
        <mxCell id="UzmtRjde1-FKZK47zOih-73" style="edgeStyle=orthogonalEdgeStyle;rounded=0;orthogonalLoop=1;jettySize=auto;html=1;exitX=0.5;exitY=1;exitDx=0;exitDy=0;entryX=0.5;entryY=0;entryDx=0;entryDy=0;startArrow=none;startFill=0;" parent="1" source="UzmtRjde1-FKZK47zOih-72" target="UzmtRjde1-FKZK47zOih-1" edge="1">
          <mxGeometry relative="1" as="geometry" />
        </mxCell>
        <mxCell id="UzmtRjde1-FKZK47zOih-72" value="unexpected stuff" style="rounded=0;whiteSpace=wrap;html=1;align=center;" parent="1" vertex="1">
          <mxGeometry x="350" y="85" width="140" height="40" as="geometry" />
        </mxCell>
      </root>
    </mxGraphModel>
  </diagram>
</mxfile>
